<svg width="800" height="800" viewBox="0 0 800 800" fill="none" xmlns="http://www.w3.org/2000/svg">
<g id="adobe-svgrepo-com 1" clip-path="url(#clip0_114_9)">
<path id="Vector" d="M0 289.523C0 188.181 0 137.509 19.7226 98.8017C37.0711 64.7534 64.7534 37.0711 98.8017 19.7226C137.509 0 188.181 0 289.523 0H510.477C611.82 0 662.491 0 701.197 19.7226C735.246 37.0711 762.929 64.7534 780.277 98.8017C800 137.509 800 188.181 800 289.523V510.477C800 611.82 800 662.491 780.277 701.197C762.929 735.246 735.246 762.929 701.197 780.277C662.491 800 611.82 800 510.477 800H289.523C188.181 800 137.509 800 98.8017 780.277C64.7534 762.929 37.0711 735.246 19.7226 701.197C0 662.491 0 611.82 0 510.477V289.523Z" fill="black"/>
<path id="Vector_2" d="M175 575C175 575 330.518 200.098 330.148 200H448.252L625 575H491.503C491.603 575.197 391.407 344.908 390.15 342.593C389.93 344.6 323.71 498.727 322.91 498.917H394.275C393.95 499.31 425.305 574.285 425.305 575H175Z" fill="white"/>
</g>
<defs>
<clipPath id="clip0_114_9">
<rect width="800" height="800" fill="white"/>
</clipPath>
</defs>
</svg>
