<svg width="800" height="800" viewBox="0 0 800 800" fill="none" xmlns="http://www.w3.org/2000/svg">
<g id="coding-programming-language-svgrepo-com 1" clip-path="url(#clip0_114_2)">
<g id="Group">
<path id="Vector" d="M634.483 800H165.517C74.1109 800 0 725.889 0 634.483V165.517C0 74.1109 74.1109 0 165.517 0H634.483C725.889 0 800 74.1109 800 165.517V634.483C800 725.889 725.889 800 634.483 800Z" fill="black"/>
<g id="Group_2">
<path id="Vector_2" d="M344.828 565.523C343.269 565.523 341.669 565.247 340.111 564.681C332.966 562.075 329.256 554.17 331.877 547.012L442.222 243.564C444.816 236.405 452.705 232.722 459.891 235.316C467.036 237.922 470.745 245.827 468.125 252.984L357.78 556.433C355.752 562.048 350.455 565.523 344.828 565.523Z" fill="white"/>
<path id="Vector_3" d="M275.863 565.517C245.434 565.517 220.691 540.772 220.691 510.345V447.091L183.353 409.753C177.959 404.359 177.959 395.642 183.353 390.25L220.691 352.912V289.658C220.691 259.23 245.436 234.486 275.863 234.486C283.491 234.486 289.656 240.666 289.656 248.28C289.656 255.894 283.491 262.073 275.863 262.073C260.648 262.073 248.277 274.445 248.277 289.659V358.625C248.277 362.28 246.828 365.797 244.236 368.376L212.606 400L244.234 431.628C246.828 434.208 248.275 437.725 248.275 441.38V510.345C248.275 525.559 260.647 537.931 275.861 537.931C283.489 537.931 289.655 544.111 289.655 551.725C289.655 559.337 283.489 565.517 275.863 565.517Z" fill="white"/>
<path id="Vector_4" d="M524.138 565.517C516.509 565.517 510.344 559.337 510.344 551.723C510.344 544.109 516.509 537.93 524.138 537.93C539.352 537.93 551.723 525.558 551.723 510.344V441.378C551.723 437.709 553.172 434.192 555.778 431.612L587.477 400L555.78 368.386C553.173 365.806 551.725 362.289 551.725 358.62V289.655C551.725 274.441 539.353 262.069 524.139 262.069C516.511 262.069 510.345 255.889 510.345 248.275C510.345 240.661 516.511 234.481 524.139 234.481C554.567 234.481 579.311 259.227 579.311 289.653V352.894L616.745 390.231C619.339 392.811 620.8 396.328 620.8 399.997C620.8 403.666 619.338 407.183 616.745 409.762L579.311 447.1V510.341C579.311 540.772 554.566 565.517 524.138 565.517Z" fill="white"/>
</g>
</g>
</g>
<defs>
<clipPath id="clip0_114_2">
<rect width="800" height="800" fill="white"/>
</clipPath>
</defs>
</svg>
