<svg width="800" height="800" viewBox="0 0 800 800" fill="none" xmlns="http://www.w3.org/2000/svg">
<g id="GMAIL SVG">
<path id="background" d="M50 298.89C50 211.769 50 168.21 66.9545 134.935C81.8682 105.665 105.665 81.8682 134.935 66.9545C168.21 50 211.769 50 298.89 50H501.11C588.23 50 631.79 50 665.065 66.9545C694.335 81.8682 718.133 105.665 733.045 134.935C750 168.21 750 211.769 750 298.89V501.11C750 588.23 750 631.79 733.045 665.065C718.133 694.335 694.335 718.133 665.065 733.045C631.79 750 588.23 750 501.11 750H298.89C211.769 750 168.21 750 134.935 733.045C105.665 718.133 81.8682 694.335 66.9545 665.065C50 631.79 50 588.23 50 501.11V298.89Z" fill="white"/>
<path id="orange" d="M551.288 213.074L401.61 329.885L248.511 213.074V213.105L248.696 213.263V376.83L399.885 496.165L551.288 381.438V213.074Z" fill="#EA4335"/>
<path id="yellow" d="M590.578 184.66L551.27 213.073V381.437L674.958 286.475V229.268C674.958 229.268 659.945 147.565 590.578 184.66Z" fill="#FBBC05"/>
<path id="green" d="M551.27 381.437V599.81H646.07C646.07 599.81 673.048 597.032 674.988 566.282V286.475L551.27 381.437Z" fill="#34A853"/>
<path id="shadow" d="M248.703 600.002V376.83L248.511 376.673L248.703 600.002Z" fill="#C5221F"/>
<path id="red" d="M248.503 213.101L209.412 184.846C140.045 147.75 125 229.423 125 229.423V286.628L248.503 376.668V213.101Z" fill="#C5221F"/>
<path id="shadow 1" d="M248.511 213.11V376.677L248.703 376.835V213.268L248.511 213.11Z" fill="#C5221F"/>
<path id="blue" d="M125 286.67V566.477C126.911 597.26 153.918 600.007 153.918 600.007H248.719L248.503 376.677L125 286.67Z" fill="#4285F4"/>
</g>
</svg>
