<svg width="700" height="700" viewBox="0 0 700 700" fill="none" xmlns="http://www.w3.org/2000/svg">
<g id="WA SVG">
<path id="shadow" fill-rule="evenodd" clip-rule="evenodd" d="M350 678.125C519.137 678.125 656.25 541.012 656.25 371.875C656.25 202.738 519.137 65.625 350 65.625C180.863 65.625 43.75 202.738 43.75 371.875C43.75 426.801 58.2094 478.349 83.529 522.922L43.75 678.125L203.763 641.021C247.218 664.681 297.038 678.125 350 678.125ZM350 631.011C493.117 631.011 609.136 514.992 609.136 371.875C609.136 228.76 493.117 112.74 350 112.74C206.884 112.74 90.8655 228.76 90.8655 371.875C90.8655 427.133 108.161 478.352 137.634 520.411L114.423 607.451L202.998 585.307C244.768 614.132 295.413 631.011 350 631.011Z" fill="#BFC8D0"/>
<path id="background" d="M612.5 350C612.5 494.974 494.974 612.5 350 612.5C294.704 612.5 243.401 595.402 201.089 566.206L111.364 588.637L134.876 500.465C105.02 457.859 87.5 405.976 87.5 350C87.5 205.025 205.025 87.5 350 87.5C494.974 87.5 612.5 205.025 612.5 350Z" fill="url(#paint0_linear_109_23)"/>
<path id="border " fill-rule="evenodd" clip-rule="evenodd" d="M350 656.25C519.137 656.25 656.25 519.137 656.25 350C656.25 180.863 519.137 43.75 350 43.75C180.863 43.75 43.75 180.863 43.75 350C43.75 404.926 58.2094 456.474 83.529 501.047L43.75 656.25L203.763 619.146C247.218 642.806 297.038 656.25 350 656.25ZM350 609.136C493.117 609.136 609.136 493.117 609.136 350C609.136 206.884 493.117 90.8655 350 90.8655C206.884 90.8655 90.8655 206.884 90.8655 350C90.8655 405.258 108.161 456.477 137.634 498.536L114.423 585.576L202.998 563.432C244.768 592.257 295.413 609.136 350 609.136Z" fill="white"/>
<path id="telp logo" d="M273.438 207.81C266.157 193.185 254.986 194.48 243.703 194.48C223.536 194.48 192.09 218.636 192.09 263.594C192.09 300.438 208.325 340.769 263.034 401.102C315.831 459.329 385.206 489.449 442.798 488.423C500.391 487.399 512.24 437.837 512.24 421.1C512.24 413.682 507.636 409.981 504.466 408.975C484.84 399.556 448.641 382.005 440.405 378.709C432.169 375.412 427.868 379.872 425.195 382.298C417.727 389.414 402.922 410.392 397.852 415.111C392.783 419.829 385.225 417.441 382.08 415.658C370.506 411.014 339.126 397.055 314.114 372.807C283.178 342.821 281.363 332.502 275.535 323.319C270.874 315.971 274.295 311.465 276.001 309.494C282.667 301.805 291.869 289.931 295.997 284.032C300.123 278.13 296.848 269.172 294.882 263.594C286.427 239.597 279.263 219.509 273.438 207.81Z" fill="white"/>
</g>
<defs>
<linearGradient id="paint0_linear_109_23" x1="579.687" y1="153.125" x2="87.5" y2="612.5" gradientUnits="userSpaceOnUse">
<stop stop-color="#5BD066"/>
<stop offset="1" stop-color="#27B43E"/>
</linearGradient>
</defs>
</svg>
